{
  "accessors": [
    {
      "bufferView": 2,
      "componentType": 5126,
      "count": 9900,
      "max": [
        0.69991189241409302,
        0.69991189241409302,
        0.69999998807907104
      ],
      "min": [
        -0.69991189241409302,
        -0.69991189241409302,
        -0.69999998807907104
      ],
      "type": "VEC3"
    },
    {
      "bufferView": 2,
      "byteOffset": 118800,
      "componentType": 5126,
      "count": 9900,
      "max": [
        0.99945068359375,
        0.99987417459487915,
        1
      ],
      "min": [
        -0.99987417459487915,
        -0.99987423419952393,
        -1
      ],
      "type": "VEC3"
    },
    {
      "bufferView": 1,
      "componentType": 5126,
      "count": 9900,
      "max": [
        1,
        0.99797433614730835
      ],
      "min": [
        2.7866374239238212e-06,
        0.0020256636198610067
      ],
      "type": "VEC2"
    },
    {
      "bufferView": 0,
      "componentType": 5125,
      "count": 58800,
      "max": [
        9899
      ],
      "min": [
        0
      ],
      "type": "SCALAR"
    },
    {
      "bufferView": 2,
      "byteOffset": 237600,
      "componentType": 5126,
      "count": 9900,
      "max": [
        0.71990936994552612,
        0.71990936994552612,
        0.72000002861022949
      ],
      "min": [
        -0.71990936994552612,
        -0.71990936994552612,
        -0.72000002861022949
      ],
      "type": "VEC3"
    },
    {
      "bufferView": 2,
      "byteOffset": 356400,
      "componentType": 5126,
      "count": 9900,
      "max": [
        0.99945068359375,
        0.99987417459487915,
        0.99999994039535522
      ],
      "min": [
        -0.99987423419952393,
        -0.99987411499023438,
        -0.99999994039535522
      ],
      "type": "VEC3"
    },
    {
      "bufferView": 1,
      "byteOffset": 79200,
      "componentType": 5126,
      "count": 9900,
      "max": [
        1,
        0.99797433614730835
      ],
      "min": [
        2.7866969958267873e-06,
        0.0020256636198610067
      ],
      "type": "VEC2"
    },
    {
      "bufferView": 0,
      "byteOffset": 235200,
      "componentType": 5125,
      "count": 58800,
      "max": [
        9899
      ],
      "min": [
        0
      ],
      "type": "SCALAR"
    },
    {
      "bufferView": 2,
      "byteOffset": 475200,
      "componentType": 5126,
      "count": 9900,
      "max": [
        99.974822998046875,
        699.974853515625,
        50
      ],
      "min": [
        -299.97482299804688,
        300.02517700195312,
        -350
      ],
      "type": "VEC3"
    },
    {
      "bufferView": 2,
      "byteOffset": 594000,
      "componentType": 5126,
      "count": 9900,
      "max": [
        0.99945080280303955,
        0.99987411499023438,
        1
      ],
      "min": [
        -0.99987423419952393,
        -0.99987417459487915,
        -1
      ],
      "type": "VEC3"
    },
    {
      "bufferView": 1,
      "byteOffset": 158400,
      "componentType": 5126,
      "count": 9900,
      "max": [
        1,
        0.99797433614730835
      ],
      "min": [
        2.7532576041267021e-06,
        0.0020256638526916504
      ],
      "type": "VEC2"
    },
    {
      "bufferView": 0,
      "byteOffset": 470400,
      "componentType": 5125,
      "count": 58800,
      "max": [
        9899
      ],
      "min": [
        0
      ],
      "type": "SCALAR"
    },
    {
      "bufferView": 2,
      "byteOffset": 712800,
      "componentType": 5126,
      "count": 9900,
      "max": [
        99.974822998046875,
        699.974853515625,
        50
      ],
      "min": [
        -299.97482299804688,
        300.02517700195312,
        -350
      ],
      "type": "VEC3"
    },
    {
      "bufferView": 2,
      "byteOffset": 831600,
      "componentType": 5126,
      "count": 9900,
      "max": [
        0.99945080280303955,
        0.99987411499023438,
        1
      ],
      "min": [
        -0.99987423419952393,
        -0.99987417459487915,
        -1
      ],
      "type": "VEC3"
    },
    {
      "bufferView": 1,
      "byteOffset": 237600,
      "componentType": 5126,
      "count": 9900,
      "max": [
        1,
        0.99797433614730835
      ],
      "min": [
        2.7532576041267021e-06,
        0.0020256638526916504
      ],
      "type": "VEC2"
    },
    {
      "bufferView": 0,
      "byteOffset": 705600,
      "componentType": 5125,
      "count": 58800,
      "max": [
        9899
      ],
      "min": [
        0
      ],
      "type": "SCALAR"
    },
    {
      "bufferView": 2,
      "byteOffset": 950400,
      "componentType": 5126,
      "count": 9900,
      "max": [
        749.90557861328125,
        749.90557861328125,
        750
      ],
      "min": [
        -749.90557861328125,
        -749.90557861328125,
        -750
      ],
      "type": "VEC3"
    },
    {
      "bufferView": 2,
      "byteOffset": 1069200,
      "componentType": 5126,
      "count": 9900,
      "max": [
        0.99945068359375,
        0.99987417459487915,
        1
      ],
      "min": [
        -0.99987417459487915,
        -0.99987417459487915,
        -1
      ],
      "type": "VEC3"
    },
    {
      "bufferView": 1,
      "byteOffset": 316800,
      "componentType": 5126,
      "count": 9900,
      "max": [
        1,
        0.99797433614730835
      ],
      "min": [
        2.7866908567375503e-06,
        0.0020256636198610067
      ],
      "type": "VEC2"
    },
    {
      "bufferView": 0,
      "byteOffset": 940800,
      "componentType": 5125,
      "count": 58800,
      "max": [
        9899
      ],
      "min": [
        0
      ],
      "type": "SCALAR"
    },
    {
      "bufferView": 2,
      "byteOffset": 1188000,
      "componentType": 5126,
      "count": 45893,
      "max": [
        -0.48014837503433228,
        -3.2290496826171875,
        -0.09019692987203598
      ],
      "min": [
        -0.71751117706298828,
        -3.5458574295043945,
        -0.36699029803276062
      ],
      "type": "VEC3"
    },
    {
      "bufferView": 2,
      "byteOffset": 1738716,
      "componentType": 5126,
      "count": 45893,
      "max": [
        0.99999237060546875,
        0.99993723630905151,
        0.99938416481018066
      ],
      "min": [
        -0.99973362684249878,
        -0.99999082088470459,
        -0.9999161958694458
      ],
      "type": "VEC3"
    },
    {
      "bufferView": 1,
      "byteOffset": 396000,
      "componentType": 5126,
      "count": 45893,
      "max": [
        1,
        1
      ],
      "min": [
        -1,
        -1
      ],
      "type": "VEC2"
    },
    {
      "bufferView": 0,
      "byteOffset": 1176000,
      "componentType": 5125,
      "count": 91176,
      "max": [
        45892
      ],
      "min": [
        0
      ],
      "type": "SCALAR"
    },
    {
      "bufferView": 2,
      "byteOffset": 2289432,
      "componentType": 5126,
      "count": 9802,
      "max": [
        0.0049993707798421383,
        0.0049993707798421383,
        0.004999999888241291
      ],
      "min": [
        -0.0049993707798421383,
        -0.0049993707798421383,
        -0.004999999888241291
      ],
      "type": "VEC3"
    },
    {
      "bufferView": 2,
      "byteOffset": 2407056,
      "componentType": 5126,
      "count": 9802,
      "max": [
        0.99987411499023438,
        0.99987411499023438,
        1
      ],
      "min": [
        -0.99987411499023438,
        -0.99987411499023438,
        -1
      ],
      "type": "VEC3"
    },
    {
      "bufferView": 0,
      "byteOffset": 1540704,
      "componentType": 5125,
      "count": 58800,
      "max": [
        9801
      ],
      "min": [
        0
      ],
      "type": "SCALAR"
    },
    {
      "bufferView": 2,
      "byteOffset": 2524680,
      "componentType": 5126,
      "count": 9802,
      "max": [
        -0.55813103914260864,
        -3.408829927444458,
        -0.19905409216880798
      ],
      "min": [
        -0.64480578899383545,
        -3.4880218505859375,
        -0.28631177544593811
      ],
      "type": "VEC3"
    },
    {
      "bufferView": 2,
      "byteOffset": 2642304,
      "componentType": 5126,
      "count": 9802,
      "max": [
        0.99996942281723022,
        0.99976247549057007,
        0.99985647201538086
      ],
      "min": [
        -0.99996399879455566,
        -0.99976557493209839,
        -0.99984133243560791
      ],
      "type": "VEC3"
    },
    {
      "bufferView": 0,
      "byteOffset": 1775904,
      "componentType": 5125,
      "count": 58800,
      "max": [
        9801
      ],
      "min": [
        0
      ],
      "type": "SCALAR"
    }
  ],
  "asset": {
    "extras": {
      "author": "Salvatore Orlando (https://sketchfab.com/sorlando)",
      "license": "CC-BY-NC-4.0 (http://creativecommons.org/licenses/by-nc/4.0/)",
      "source": "https://sketchfab.com/3d-models/star-wars-the-volcanic-planet-mustafar-7c2aaf8d2ce14fc1b6790d70f6d7c27e",
      "title": "Star Wars: The volcanic planet Mustafar"
    },
    "generator": "Sketchfab-8.7.0",
    "version": "2.0"
  },
  "bufferViews": [
    {
      "buffer": 0,
      "byteLength": 2011104,
      "byteOffset": 0,
      "name": "floatBufferViews",
      "target": 34963
    },
    {
      "buffer": 0,
      "byteLength": 763144,
      "byteOffset": 2011104,
      "byteStride": 8,
      "name": "floatBufferViews",
      "target": 34962
    },
    {
      "buffer": 0,
      "byteLength": 2759928,
      "byteOffset": 2774248,
      "byteStride": 12,
      "name": "floatBufferViews",
      "target": 34962
    }
  ],
  "buffers": [
    {
      "byteLength": 5534176,
      "uri": "scene.bin"
    }
  ],
  "images": [
    {
      "uri": "textures/material_0_baseColor.jpeg"
    },
    {
      "uri": "textures/material_1_baseColor.png"
    },
    {
      "uri": "textures/material_1_emissive.jpeg"
    },
    {
      "uri": "textures/material_2_baseColor.png"
    },
    {
      "uri": "textures/material_3_baseColor.png"
    },
    {
      "uri": "textures/material_4_baseColor.png"
    },
    {
      "uri": "textures/material_4_emissive.png"
    }
  ],
  "materials": [
    {
      "doubleSided": true,
      "emissiveFactor": [
        1,
        1,
        1
      ],
      "emissiveTexture": {
        "index": 1,
        "texCoord": 0
      },
      "name": "material_0",
      "pbrMetallicRoughness": {
        "baseColorFactor": [
          0,
          0,
          0,
          1
        ],
        "baseColorTexture": {
          "index": 0,
          "texCoord": 0
        },
        "metallicFactor": 0,
        "roughnessFactor": 1
      }
    },
    {
      "alphaMode": "BLEND",
      "doubleSided": true,
      "emissiveFactor": [
        1,
        1,
        1
      ],
      "emissiveTexture": {
        "index": 3,
        "texCoord": 0
      },
      "name": "material_1",
      "pbrMetallicRoughness": {
        "baseColorFactor": [
          0.82379012390658057,
          0.43787166286828755,
          0.29676040107399998,
          0.20000000000000001
        ],
        "baseColorTexture": {
          "index": 2,
          "texCoord": 0
        },
        "metallicFactor": 0,
        "roughnessFactor": 1
      }
    },
    {
      "doubleSided": false,
      "emissiveFactor": [
        0,
        0,
        0
      ],
      "name": "material_2",
      "pbrMetallicRoughness": {
        "baseColorFactor": [
          1,
          1,
          1,
          1
        ],
        "baseColorTexture": {
          "index": 4,
          "texCoord": 0
        },
        "metallicFactor": 0,
        "roughnessFactor": 1
      }
    },
    {
      "alphaMode": "BLEND",
      "doubleSided": true,
      "name": "material_3",
      "pbrMetallicRoughness": {
        "baseColorFactor": [
          1,
          1,
          1,
          0.41443802589593931
        ],
        "baseColorTexture": {
          "index": 5,
          "texCoord": 0
        },
        "metallicFactor": 0,
        "roughnessFactor": 1
      }
    },
    {
      "alphaMode": "BLEND",
      "doubleSided": true,
      "emissiveFactor": [
        1,
        1,
        1
      ],
      "emissiveTexture": {
        "index": 7,
        "texCoord": 0
      },
      "name": "material_4",
      "pbrMetallicRoughness": {
        "baseColorFactor": [
          1,
          1,
          1,
          0.41443802590000001
        ],
        "baseColorTexture": {
          "index": 6,
          "texCoord": 0
        },
        "metallicFactor": 0,
        "roughnessFactor": 1
      }
    },
    {
      "doubleSided": false,
      "emissiveFactor": [
        0,
        0,
        0
      ],
      "name": "material_5",
      "pbrMetallicRoughness": {
        "baseColorFactor": [
          0.068619217236385713,
          0.07064054922904707,
          0.070613493020632218,
          1
        ],
        "metallicFactor": 0,
        "roughnessFactor": 1
      }
    },
    {
      "doubleSided": false,
      "emissiveFactor": [
        1,
        1,
        1
      ],
      "name": "material_6",
      "pbrMetallicRoughness": {
        "baseColorFactor": [
          1,
          1,
          1,
          1
        ],
        "metallicFactor": 0,
        "roughnessFactor": 1
      }
    },
    {
      "doubleSided": false,
      "emissiveFactor": [
        1,
        1,
        1
      ],
      "name": "material_7",
      "pbrMetallicRoughness": {
        "baseColorFactor": [
          0.66666700000000001,
          1,
          1,
          1
        ],
        "metallicFactor": 0,
        "roughnessFactor": 1
      }
    }
  ],
  "meshes": [
    {
      "primitives": [
        {
          "attributes": {
            "NORMAL": 1,
            "POSITION": 0,
            "TEXCOORD_0": 2
          },
          "indices": 3,
          "material": 0,
          "mode": 4
        }
      ]
    },
    {
      "primitives": [
        {
          "attributes": {
            "NORMAL": 5,
            "POSITION": 4,
            "TEXCOORD_0": 6
          },
          "indices": 7,
          "material": 1,
          "mode": 4
        }
      ]
    },
    {
      "primitives": [
        {
          "attributes": {
            "NORMAL": 9,
            "POSITION": 8,
            "TEXCOORD_0": 10
          },
          "indices": 11,
          "material": 2,
          "mode": 4
        }
      ]
    },
    {
      "primitives": [
        {
          "attributes": {
            "NORMAL": 13,
            "POSITION": 12,
            "TEXCOORD_0": 14
          },
          "indices": 15,
          "material": 3,
          "mode": 4
        }
      ]
    },
    {
      "primitives": [
        {
          "attributes": {
            "NORMAL": 17,
            "POSITION": 16,
            "TEXCOORD_0": 18
          },
          "indices": 19,
          "material": 4,
          "mode": 4
        }
      ]
    },
    {
      "primitives": [
        {
          "attributes": {
            "NORMAL": 21,
            "POSITION": 20,
            "TEXCOORD_0": 22
          },
          "indices": 23,
          "material": 5,
          "mode": 4
        }
      ]
    },
    {
      "primitives": [
        {
          "attributes": {
            "NORMAL": 25,
            "POSITION": 24
          },
          "indices": 26,
          "material": 6,
          "mode": 4
        }
      ]
    },
    {
      "primitives": [
        {
          "attributes": {
            "NORMAL": 28,
            "POSITION": 27
          },
          "indices": 29,
          "material": 7,
          "mode": 4
        }
      ]
    }
  ],
  "nodes": [
    {
      "children": [
        1
      ],
      "name": "RootNode (gltf orientation matrix)",
      "rotation": [
        -0.70710678118654746,
        -0,
        -0,
        0.70710678118654757
      ]
    },
    {
      "children": [
        2
      ],
      "matrix": [
        0.12412521988153458,
        0.94363093376159668,
        -0.30684459209442139,
        0,
        -0.084540426731109619,
        -0.29805460572242737,
        -0.95079773664474487,
        0,
        -0.988658607006073,
        0.14395876228809357,
        0.042778868228197098,
        0,
        174.85366821289062,
        -8.6583976745605469,
        49.018547058105469,
        1
      ],
      "name": "RootNode (model correction matrix)"
    },
    {
      "children": [
        3
      ],
      "name": "root"
    },
    {
      "children": [
        4
      ],
      "matrix": [
        1,
        0,
        0,
        0,
        0,
        2.2204460492503131e-16,
        1,
        0,
        0,
        -1,
        2.2204460492503131e-16,
        0,
        0,
        0,
        0,
        1
      ],
      "name": "GLTF_SceneRootNode"
    },
    {
      "children": [
        5,
        7,
        9,
        11,
        13,
        15,
        17,
        19
      ],
      "name": "Renderer Node_9"
    },
    {
      "children": [
        6
      ],
      "name": "mesh0_0"
    },
    {
      "mesh": 0,
      "name": ""
    },
    {
      "children": [
        8
      ],
      "name": "mesh1_1"
    },
    {
      "mesh": 1,
      "name": ""
    },
    {
      "children": [
        10
      ],
      "name": "mesh2_2"
    },
    {
      "mesh": 2,
      "name": ""
    },
    {
      "children": [
        12
      ],
      "name": "mesh3_3"
    },
    {
      "mesh": 3,
      "name": ""
    },
    {
      "children": [
        14
      ],
      "name": "mesh4_4"
    },
    {
      "mesh": 4,
      "name": ""
    },
    {
      "children": [
        16
      ],
      "name": "mesh5_5"
    },
    {
      "mesh": 5,
      "name": ""
    },
    {
      "children": [
        18
      ],
      "name": "mesh6_6"
    },
    {
      "mesh": 6,
      "name": ""
    },
    {
      "children": [
        20
      ],
      "name": "mesh7_7"
    },
    {
      "mesh": 7,
      "name": ""
    }
  ],
  "samplers": [
    {
      "magFilter": 9728,
      "minFilter": 9728,
      "wrapS": 10497,
      "wrapT": 10497
    },
    {
      "magFilter": 9729,
      "minFilter": 9987,
      "wrapS": 10497,
      "wrapT": 10497
    }
  ],
  "scene": 0,
  "scenes": [
    {
      "name": "OSG_Scene",
      "nodes": [
        0
      ]
    }
  ],
  "textures": [
    {
      "sampler": 0,
      "source": 0
    },
    {
      "sampler": 1,
      "source": 0
    },
    {
      "sampler": 1,
      "source": 1
    },
    {
      "sampler": 1,
      "source": 2
    },
    {
      "sampler": 0,
      "source": 3
    },
    {
      "sampler": 1,
      "source": 4
    },
    {
      "sampler": 0,
      "source": 5
    },
    {
      "sampler": 1,
      "source": 6
    }
  ]
}

